<svg xmlns="http://www.w3.org/2000/svg" width="22.019" height="26.505" viewBox="0 0 22.019 26.505">
  <g id="notebook-of-contacts" transform="translate(-37.4)">
    <path id="Path_331" data-name="Path 331" d="M41.478,13.252a1.019,1.019,0,0,1-1.019,1.019H38.419A1.019,1.019,0,0,1,37.4,13.252h0a1.019,1.019,0,0,1,1.019-1.019h2.039a1.019,1.019,0,0,1,1.019,1.019Zm0-6.524a1.019,1.019,0,0,0-1.019-1.019H38.419A1.019,1.019,0,0,0,37.4,6.728h0a1.019,1.019,0,0,0,1.019,1.019h2.039a1.019,1.019,0,0,0,1.019-1.019Zm0,13.048a1.019,1.019,0,0,0-1.019-1.019H38.419A1.019,1.019,0,0,0,37.4,19.777h0A1.019,1.019,0,0,0,38.419,20.8h2.039a1.019,1.019,0,0,0,1.019-1.019ZM59.419,3.262v19.98A3.262,3.262,0,0,1,56.157,26.5H41.886a3.262,3.262,0,0,1-3.262-3.262V21.611h1.835a1.835,1.835,0,0,0,0-3.67H38.623V15.087h1.835a1.835,1.835,0,0,0,0-3.67H38.623V8.563h1.835a1.835,1.835,0,0,0,0-3.67H38.623V3.262A3.262,3.262,0,0,1,41.885,0H56.157A3.262,3.262,0,0,1,59.419,3.262ZM46.487,9.67a3.145,3.145,0,1,0,3.145-3.146A3.146,3.146,0,0,0,46.487,9.67Zm8.039,7.689a3.5,3.5,0,0,0-3.495-3.495h-2.8a3.5,3.5,0,0,0-3.5,3.495v1.4h9.786Z" fill="#a9b2ba"/>
  </g>
</svg>
