<svg xmlns="http://www.w3.org/2000/svg" xmlns:xlink="http://www.w3.org/1999/xlink" width="45" height="38" viewBox="0 0 45 38">
  <defs>
    <clipPath id="clip-path">
      <rect id="america_flag" data-name="america flag" width="45" height="38" rx="2" transform="translate(1440 29)" fill="#fff" stroke="#e9ecef" stroke-width="1"/>
    </clipPath>
  </defs>
  <g id="Flag" transform="translate(-1440 -29)">
    <g id="america_flag-2" data-name="america flag">
      <g id="america_flag-3" data-name="america flag" transform="translate(1440 29)" fill="#fff" stroke="#e9ecef" stroke-width="1">
        <rect width="45" height="38" rx="2" stroke="none"/>
        <rect x="0.5" y="0.5" width="44" height="37" rx="1.5" fill="none"/>
      </g>
      <g id="Clip" clip-path="url(#clip-path)">
        <g id="Flag-2" data-name="Flag" transform="translate(1440 -58.586)">
          <path id="Path_285" data-name="Path 285" d="M55.086,125H.966A.967.967,0,0,1,0,124.034V89.242a.967.967,0,0,1,.966-.966h54.12a.967.967,0,0,1,.966.966v34.791A.967.967,0,0,1,55.086,125Z" fill="#f5f5f5"/>
          <g id="Group_639" data-name="Group 639" transform="translate(0 88.276)">
            <path id="Path_286" data-name="Path 286" d="M56.053,91.1H0V89.242a.967.967,0,0,1,.966-.966h54.12a.967.967,0,0,1,.966.966V91.1Z" transform="translate(0 -88.276)" fill="#ff4b55"/>
            <rect id="Rectangle_792" data-name="Rectangle 792" width="56.053" height="2.825" transform="translate(0 11.3)" fill="#ff4b55"/>
            <rect id="Rectangle_793" data-name="Rectangle 793" width="56.053" height="2.825" transform="translate(0 5.65)" fill="#ff4b55"/>
            <path id="Path_287" data-name="Path 287" d="M56.053,245.923H.966A.967.967,0,0,1,0,244.957V243.1H56.053Z" transform="translate(0 -226.148)" fill="#ff4b55"/>
            <rect id="Rectangle_794" data-name="Rectangle 794" width="56.053" height="2.825" transform="translate(0 28.25)" fill="#ff4b55"/>
            <path id="Path_288" data-name="Path 288" d="M55.086,400.746H.966A.967.967,0,0,1,0,399.78v-1.858H56.053v1.859A.966.966,0,0,1,55.086,400.746Z" transform="translate(0 -364.022)" fill="#ff4b55"/>
            <rect id="Rectangle_795" data-name="Rectangle 795" width="56.053" height="2.825" transform="translate(0 22.6)" fill="#ff4b55"/>
          </g>
          <path id="Path_289" data-name="Path 289" d="M25.127,88.277H.966A.966.966,0,0,0,0,89.243v17.842a.967.967,0,0,0,.966.966H25.127a.967.967,0,0,0,.966-.966V89.243A.967.967,0,0,0,25.127,88.277Z" transform="translate(0 -0.001)" fill="#41479b"/>
          <g id="Group_640" data-name="Group 640" transform="translate(1.56 90.432)">
            <path id="Path_290" data-name="Path 290" d="M15.406,108.031l.214.642.676.005a.091.091,0,0,1,.053.164l-.544.4.2.645a.091.091,0,0,1-.14.1l-.55-.393-.55.393a.091.091,0,0,1-.14-.1l.2-.645-.544-.4a.091.091,0,0,1,.053-.164l.676-.005.214-.642A.091.091,0,0,1,15.406,108.031Z" transform="translate(-14.253 -107.969)" fill="#f5f5f5"/>
            <path id="Path_291" data-name="Path 291" d="M15.406,138.686l.214.642.676.005a.091.091,0,0,1,.053.164l-.544.4.2.645a.091.091,0,0,1-.14.1l-.55-.393-.55.393a.091.091,0,0,1-.14-.1l.2-.645-.544-.4a.091.091,0,0,1,.053-.164l.676-.005.214-.642A.091.091,0,0,1,15.406,138.686Z" transform="translate(-14.253 -135.268)" fill="#f5f5f5"/>
            <path id="Path_292" data-name="Path 292" d="M15.406,169.34l.214.642.676.005a.091.091,0,0,1,.053.164l-.544.4.2.645a.091.091,0,0,1-.14.1l-.55-.393-.55.393a.091.091,0,0,1-.14-.1l.2-.645-.544-.4a.091.091,0,0,1,.053-.164l.676-.005.214-.642A.091.091,0,0,1,15.406,169.34Z" transform="translate(-14.253 -162.566)" fill="#f5f5f5"/>
            <path id="Path_293" data-name="Path 293" d="M15.406,199.994l.214.642.676.005a.091.091,0,0,1,.053.164l-.544.4.2.645a.091.091,0,0,1-.14.1l-.55-.393-.55.393a.091.091,0,0,1-.14-.1l.2-.645-.544-.4a.091.091,0,0,1,.053-.164l.676-.005.214-.642A.091.091,0,0,1,15.406,199.994Z" transform="translate(-14.253 -189.864)" fill="#f5f5f5"/>
            <path id="Path_294" data-name="Path 294" d="M15.406,230.648l.214.642.676.005a.091.091,0,0,1,.053.164l-.544.4.2.645a.091.091,0,0,1-.14.1l-.55-.393-.55.393a.091.091,0,0,1-.14-.1l.2-.645-.544-.4a.091.091,0,0,1,.053-.164l.676-.005.214-.642A.091.091,0,0,1,15.406,230.648Z" transform="translate(-14.253 -217.161)" fill="#f5f5f5"/>
            <path id="Path_295" data-name="Path 295" d="M39.2,123.061l.214.642.676.005a.091.091,0,0,1,.053.164l-.544.4.2.645a.091.091,0,0,1-.14.1l-.55-.393-.55.393a.091.091,0,0,1-.14-.1l.2-.645-.544-.4a.091.091,0,0,1,.053-.164l.676-.005.214-.642A.091.091,0,0,1,39.2,123.061Z" transform="translate(-35.441 -121.353)" fill="#f5f5f5"/>
            <path id="Path_296" data-name="Path 296" d="M39.2,153.715l.214.642.676.005a.091.091,0,0,1,.053.164l-.544.4.2.645a.091.091,0,0,1-.14.1l-.55-.393-.55.393a.091.091,0,0,1-.14-.1l.2-.645-.544-.4a.091.091,0,0,1,.053-.164l.676-.005.214-.642A.091.091,0,0,1,39.2,153.715Z" transform="translate(-35.441 -148.651)" fill="#f5f5f5"/>
            <path id="Path_297" data-name="Path 297" d="M39.2,184.369l.214.642.676.005a.091.091,0,0,1,.053.164l-.544.4.2.645a.091.091,0,0,1-.14.1l-.55-.393-.55.393a.091.091,0,0,1-.14-.1l.2-.645-.544-.4a.091.091,0,0,1,.053-.164l.676-.005.214-.642A.091.091,0,0,1,39.2,184.369Z" transform="translate(-35.441 -175.949)" fill="#f5f5f5"/>
            <path id="Path_298" data-name="Path 298" d="M39.2,215.024l.214.642.676.005a.091.091,0,0,1,.053.164l-.544.4.2.645a.091.091,0,0,1-.14.1l-.55-.393-.55.393a.091.091,0,0,1-.14-.1l.2-.645-.544-.4a.091.091,0,0,1,.053-.164l.676-.005.214-.642A.091.091,0,0,1,39.2,215.024Z" transform="translate(-35.441 -203.248)" fill="#f5f5f5"/>
            <path id="Path_299" data-name="Path 299" d="M62.992,108.031l.214.642.676.005a.091.091,0,0,1,.053.164l-.544.4.2.645a.091.091,0,0,1-.14.1l-.55-.393-.55.393a.091.091,0,0,1-.14-.1l.2-.645-.544-.4a.091.091,0,0,1,.053-.164l.676-.005.214-.642A.091.091,0,0,1,62.992,108.031Z" transform="translate(-56.629 -107.969)" fill="#f5f5f5"/>
            <path id="Path_300" data-name="Path 300" d="M62.992,138.686l.214.642.676.005a.091.091,0,0,1,.053.164l-.544.4.2.645a.091.091,0,0,1-.14.1l-.55-.393-.55.393a.091.091,0,0,1-.14-.1l.2-.645-.544-.4a.091.091,0,0,1,.053-.164l.676-.005.214-.642A.091.091,0,0,1,62.992,138.686Z" transform="translate(-56.629 -135.268)" fill="#f5f5f5"/>
            <path id="Path_301" data-name="Path 301" d="M62.992,169.34l.214.642.676.005a.091.091,0,0,1,.053.164l-.544.4.2.645a.091.091,0,0,1-.14.1l-.55-.393-.55.393a.091.091,0,0,1-.14-.1l.2-.645-.544-.4a.091.091,0,0,1,.053-.164l.676-.005.214-.642A.091.091,0,0,1,62.992,169.34Z" transform="translate(-56.629 -162.566)" fill="#f5f5f5"/>
            <path id="Path_302" data-name="Path 302" d="M62.992,199.994l.214.642.676.005a.091.091,0,0,1,.053.164l-.544.4.2.645a.091.091,0,0,1-.14.1l-.55-.393-.55.393a.091.091,0,0,1-.14-.1l.2-.645-.544-.4a.091.091,0,0,1,.053-.164l.676-.005.214-.642A.091.091,0,0,1,62.992,199.994Z" transform="translate(-56.629 -189.864)" fill="#f5f5f5"/>
            <path id="Path_303" data-name="Path 303" d="M62.992,230.647l.214.642.676.005a.091.091,0,0,1,.053.164l-.544.4.2.645a.091.091,0,0,1-.14.1l-.55-.393-.55.393a.091.091,0,0,1-.14-.1l.2-.645-.544-.4a.091.091,0,0,1,.053-.164l.676-.005.214-.642A.091.091,0,0,1,62.992,230.647Z" transform="translate(-56.629 -217.161)" fill="#f5f5f5"/>
            <path id="Path_304" data-name="Path 304" d="M86.786,123.061,87,123.7l.676.005a.091.091,0,0,1,.053.164l-.544.4.2.645a.091.091,0,0,1-.14.1l-.55-.393-.55.393a.091.091,0,0,1-.14-.1l.2-.645-.544-.4a.091.091,0,0,1,.053-.164l.676-.005.214-.642A.091.091,0,0,1,86.786,123.061Z" transform="translate(-77.818 -121.353)" fill="#f5f5f5"/>
            <path id="Path_305" data-name="Path 305" d="M86.786,153.715l.214.642.676.005a.091.091,0,0,1,.053.164l-.544.4.2.645a.091.091,0,0,1-.14.1l-.55-.393-.55.393a.091.091,0,0,1-.14-.1l.2-.645-.544-.4a.091.091,0,0,1,.053-.164l.676-.005.214-.642A.091.091,0,0,1,86.786,153.715Z" transform="translate(-77.818 -148.651)" fill="#f5f5f5"/>
            <path id="Path_306" data-name="Path 306" d="M86.786,184.369l.214.642.676.005a.091.091,0,0,1,.053.164l-.544.4.2.645a.091.091,0,0,1-.14.1l-.55-.393-.55.393a.091.091,0,0,1-.14-.1l.2-.645-.544-.4a.091.091,0,0,1,.053-.164l.676-.005.214-.642A.091.091,0,0,1,86.786,184.369Z" transform="translate(-77.818 -175.949)" fill="#f5f5f5"/>
            <path id="Path_307" data-name="Path 307" d="M86.786,215.024l.214.642.676.005a.091.091,0,0,1,.053.164l-.544.4.2.645a.091.091,0,0,1-.14.1l-.55-.393-.55.393a.091.091,0,0,1-.14-.1l.2-.645-.544-.4a.091.091,0,0,1,.053-.164l.676-.005.214-.642A.091.091,0,0,1,86.786,215.024Z" transform="translate(-77.818 -203.248)" fill="#f5f5f5"/>
            <path id="Path_308" data-name="Path 308" d="M110.578,108.031l.214.642.676.005a.091.091,0,0,1,.053.164l-.544.4.2.645a.091.091,0,0,1-.14.1l-.55-.393-.55.393a.091.091,0,0,1-.14-.1l.2-.645-.544-.4a.091.091,0,0,1,.053-.164l.676-.005.214-.642A.091.091,0,0,1,110.578,108.031Z" transform="translate(-99.005 -107.969)" fill="#f5f5f5"/>
            <path id="Path_309" data-name="Path 309" d="M110.578,138.686l.214.642.676.005a.091.091,0,0,1,.053.164l-.544.4.2.645a.091.091,0,0,1-.14.1l-.55-.393-.55.393a.091.091,0,0,1-.14-.1l.2-.645-.544-.4a.091.091,0,0,1,.053-.164l.676-.005.214-.642A.091.091,0,0,1,110.578,138.686Z" transform="translate(-99.005 -135.268)" fill="#f5f5f5"/>
            <path id="Path_310" data-name="Path 310" d="M110.578,169.34l.214.642.676.005a.091.091,0,0,1,.053.164l-.544.4.2.645a.091.091,0,0,1-.14.1l-.55-.393-.55.393a.091.091,0,0,1-.14-.1l.2-.645-.544-.4a.091.091,0,0,1,.053-.164l.676-.005.214-.642A.091.091,0,0,1,110.578,169.34Z" transform="translate(-99.005 -162.566)" fill="#f5f5f5"/>
            <path id="Path_311" data-name="Path 311" d="M110.578,199.994l.214.642.676.005a.091.091,0,0,1,.053.164l-.544.4.2.645a.091.091,0,0,1-.14.1l-.55-.393-.55.393a.091.091,0,0,1-.14-.1l.2-.645-.544-.4a.091.091,0,0,1,.053-.164l.676-.005.214-.642A.091.091,0,0,1,110.578,199.994Z" transform="translate(-99.005 -189.864)" fill="#f5f5f5"/>
            <path id="Path_312" data-name="Path 312" d="M110.578,230.647l.214.642.676.005a.091.091,0,0,1,.053.164l-.544.4.2.645a.091.091,0,0,1-.14.1l-.55-.393-.55.393a.091.091,0,0,1-.14-.1l.2-.645-.544-.4a.091.091,0,0,1,.053-.164l.676-.005.214-.642A.091.091,0,0,1,110.578,230.647Z" transform="translate(-99.005 -217.161)" fill="#f5f5f5"/>
            <path id="Path_313" data-name="Path 313" d="M134.372,123.061l.214.642.676.005a.091.091,0,0,1,.053.164l-.544.4.2.645a.091.091,0,0,1-.14.1l-.55-.393-.55.393a.091.091,0,0,1-.14-.1l.2-.645-.544-.4a.091.091,0,0,1,.053-.164l.676-.005.214-.642A.091.091,0,0,1,134.372,123.061Z" transform="translate(-120.195 -121.353)" fill="#f5f5f5"/>
            <path id="Path_314" data-name="Path 314" d="M134.372,153.715l.214.642.676.005a.091.091,0,0,1,.053.164l-.544.4.2.645a.091.091,0,0,1-.14.1l-.55-.393-.55.393a.091.091,0,0,1-.14-.1l.2-.645-.544-.4a.091.091,0,0,1,.053-.164l.676-.005.214-.642A.091.091,0,0,1,134.372,153.715Z" transform="translate(-120.195 -148.651)" fill="#f5f5f5"/>
            <path id="Path_315" data-name="Path 315" d="M134.372,184.369l.214.642.676.005a.091.091,0,0,1,.053.164l-.544.4.2.645a.091.091,0,0,1-.14.1l-.55-.393-.55.393a.091.091,0,0,1-.14-.1l.2-.645-.544-.4a.091.091,0,0,1,.053-.164l.676-.005.214-.642A.091.091,0,0,1,134.372,184.369Z" transform="translate(-120.195 -175.949)" fill="#f5f5f5"/>
            <path id="Path_316" data-name="Path 316" d="M134.372,215.024l.214.642.676.005a.091.091,0,0,1,.053.164l-.544.4.2.645a.091.091,0,0,1-.14.1l-.55-.393-.55.393a.091.091,0,0,1-.14-.1l.2-.645-.544-.4a.091.091,0,0,1,.053-.164l.676-.005.214-.642A.091.091,0,0,1,134.372,215.024Z" transform="translate(-120.195 -203.248)" fill="#f5f5f5"/>
            <path id="Path_317" data-name="Path 317" d="M158.166,108.031l.214.642.676.005a.091.091,0,0,1,.053.164l-.544.4.2.645a.091.091,0,0,1-.14.1l-.55-.393-.55.393a.091.091,0,0,1-.14-.1l.2-.645-.544-.4a.091.091,0,0,1,.053-.164l.676-.005.214-.642A.091.091,0,0,1,158.166,108.031Z" transform="translate(-141.384 -107.969)" fill="#f5f5f5"/>
            <path id="Path_318" data-name="Path 318" d="M158.166,138.686l.214.642.676.005a.091.091,0,0,1,.053.164l-.544.4.2.645a.091.091,0,0,1-.14.1l-.55-.393-.55.393a.091.091,0,0,1-.14-.1l.2-.645-.544-.4a.091.091,0,0,1,.053-.164l.676-.005.214-.642A.091.091,0,0,1,158.166,138.686Z" transform="translate(-141.384 -135.268)" fill="#f5f5f5"/>
            <path id="Path_319" data-name="Path 319" d="M158.166,169.34l.214.642.676.005a.091.091,0,0,1,.053.164l-.544.4.2.645a.091.091,0,0,1-.14.1l-.55-.393-.55.393a.091.091,0,0,1-.14-.1l.2-.645-.544-.4a.091.091,0,0,1,.053-.164l.676-.005.214-.642A.091.091,0,0,1,158.166,169.34Z" transform="translate(-141.384 -162.566)" fill="#f5f5f5"/>
            <path id="Path_320" data-name="Path 320" d="M158.166,199.994l.214.642.676.005a.091.091,0,0,1,.053.164l-.544.4.2.645a.091.091,0,0,1-.14.1l-.55-.393-.55.393a.091.091,0,0,1-.14-.1l.2-.645-.544-.4a.091.091,0,0,1,.053-.164l.676-.005.214-.642A.091.091,0,0,1,158.166,199.994Z" transform="translate(-141.384 -189.864)" fill="#f5f5f5"/>
            <path id="Path_321" data-name="Path 321" d="M158.166,230.647l.214.642.676.005a.091.091,0,0,1,.053.164l-.544.4.2.645a.091.091,0,0,1-.14.1l-.55-.393-.55.393a.091.091,0,0,1-.14-.1l.2-.645-.544-.4a.091.091,0,0,1,.053-.164l.676-.005.214-.642A.091.091,0,0,1,158.166,230.647Z" transform="translate(-141.384 -217.161)" fill="#f5f5f5"/>
            <path id="Path_322" data-name="Path 322" d="M181.959,123.061l.214.642.676.005a.091.091,0,0,1,.053.164l-.544.4.2.645a.091.091,0,0,1-.14.1l-.55-.393-.55.393a.091.091,0,0,1-.14-.1l.2-.645-.544-.4a.091.091,0,0,1,.053-.164l.676-.005.214-.642A.091.091,0,0,1,181.959,123.061Z" transform="translate(-162.572 -121.353)" fill="#f5f5f5"/>
            <path id="Path_323" data-name="Path 323" d="M181.959,153.715l.214.642.676.005a.091.091,0,0,1,.053.164l-.544.4.2.645a.091.091,0,0,1-.14.1l-.55-.393-.55.393a.091.091,0,0,1-.14-.1l.2-.645-.544-.4a.091.091,0,0,1,.053-.164l.676-.005.214-.642A.091.091,0,0,1,181.959,153.715Z" transform="translate(-162.572 -148.651)" fill="#f5f5f5"/>
            <path id="Path_324" data-name="Path 324" d="M181.959,184.369l.214.642.676.005a.091.091,0,0,1,.053.164l-.544.4.2.645a.091.091,0,0,1-.14.1l-.55-.393-.55.393a.091.091,0,0,1-.14-.1l.2-.645-.544-.4a.091.091,0,0,1,.053-.164l.676-.005.214-.642A.091.091,0,0,1,181.959,184.369Z" transform="translate(-162.572 -175.949)" fill="#f5f5f5"/>
            <path id="Path_325" data-name="Path 325" d="M181.959,215.024l.214.642.676.005a.091.091,0,0,1,.053.164l-.544.4.2.645a.091.091,0,0,1-.14.1l-.55-.393-.55.393a.091.091,0,0,1-.14-.1l.2-.645-.544-.4a.091.091,0,0,1,.053-.164l.676-.005.214-.642A.091.091,0,0,1,181.959,215.024Z" transform="translate(-162.572 -203.248)" fill="#f5f5f5"/>
            <path id="Path_326" data-name="Path 326" d="M205.753,108.031l.214.642.676.005a.091.091,0,0,1,.053.164l-.544.4.2.645a.091.091,0,0,1-.14.1l-.55-.393-.55.393a.091.091,0,0,1-.14-.1l.2-.645-.544-.4a.091.091,0,0,1,.053-.164l.676-.005.214-.642A.091.091,0,0,1,205.753,108.031Z" transform="translate(-183.761 -107.969)" fill="#f5f5f5"/>
            <path id="Path_327" data-name="Path 327" d="M205.753,138.686l.214.642.676.005a.091.091,0,0,1,.053.164l-.544.4.2.645a.091.091,0,0,1-.14.1l-.55-.393-.55.393a.091.091,0,0,1-.14-.1l.2-.645-.544-.4a.091.091,0,0,1,.053-.164l.676-.005.214-.642A.091.091,0,0,1,205.753,138.686Z" transform="translate(-183.761 -135.268)" fill="#f5f5f5"/>
            <path id="Path_328" data-name="Path 328" d="M205.753,169.34l.214.642.676.005a.091.091,0,0,1,.053.164l-.544.4.2.645a.091.091,0,0,1-.14.1l-.55-.393-.55.393a.091.091,0,0,1-.14-.1l.2-.645-.544-.4a.091.091,0,0,1,.053-.164l.676-.005.214-.642A.091.091,0,0,1,205.753,169.34Z" transform="translate(-183.761 -162.566)" fill="#f5f5f5"/>
            <path id="Path_329" data-name="Path 329" d="M205.753,199.994l.214.642.676.005a.091.091,0,0,1,.053.164l-.544.4.2.645a.091.091,0,0,1-.14.1l-.55-.393-.55.393a.091.091,0,0,1-.14-.1l.2-.645-.544-.4a.091.091,0,0,1,.053-.164l.676-.005.214-.642A.091.091,0,0,1,205.753,199.994Z" transform="translate(-183.761 -189.864)" fill="#f5f5f5"/>
            <path id="Path_330" data-name="Path 330" d="M205.753,230.647l.214.642.676.005a.091.091,0,0,1,.053.164l-.544.4.2.645a.091.091,0,0,1-.14.1l-.55-.393-.55.393a.091.091,0,0,1-.14-.1l.2-.645-.544-.4a.091.091,0,0,1,.053-.164l.676-.005.214-.642A.091.091,0,0,1,205.753,230.647Z" transform="translate(-183.761 -217.161)" fill="#f5f5f5"/>
          </g>
        </g>
      </g>
    </g>
  </g>
</svg>
