<svg xmlns="http://www.w3.org/2000/svg" width="24.093" height="29.001" viewBox="0 0 24.093 29.001">
  <g id="XMLID_2555_" transform="translate(-42.782)">
    <path id="XMLID_2859_" d="M42.782,180H66.875v2.581H42.782Z" transform="translate(0 -169.675)" fill="#a9b2ba"/>
    <path id="XMLID_2874_" d="M42.782,257.169l9.465,6.624v5.581l5.163-1.434v-4.146l9.465-6.624V255H42.782Z" transform="translate(0 -240.372)" fill="#a9b2ba"/>
    <path id="XMLID_2875_" d="M171.416,5.788a5.206,5.206,0,0,0-1.323-.935,3.012,3.012,0,1,0-4.76,0,5.2,5.2,0,0,0-1.323.935A5.067,5.067,0,0,0,162.536,8.6H172.89a5.067,5.067,0,0,0-1.474-2.816Z" transform="translate(-112.884)" fill="#a9b2ba"/>
  </g>
</svg>
