<svg xmlns="http://www.w3.org/2000/svg" width="27.54" height="20.978" viewBox="0 0 27.54 20.978">
  <g id="megaphone" transform="translate(0 -31.001)">
    <path id="Path_340" data-name="Path 340" d="M392,61v1.614a4.846,4.846,0,0,1,4.841,4.841h1.614A6.462,6.462,0,0,0,392,61Z" transform="translate(-370.916 -28.386)" fill="#a9b2ba"/>
    <path id="Path_341" data-name="Path 341" d="M393.616,124.228h1.614A3.231,3.231,0,0,0,392,121v1.614A1.616,1.616,0,0,1,393.616,124.228Z" transform="translate(-370.916 -85.159)" fill="#a9b2ba"/>
    <path id="Path_342" data-name="Path 342" d="M392,275.842v1.614A6.462,6.462,0,0,0,398.457,271h-1.614A4.846,4.846,0,0,1,392,275.842Z" transform="translate(-370.916 -227.091)" fill="#a9b2ba"/>
    <path id="Path_343" data-name="Path 343" d="M392,274.228A3.231,3.231,0,0,0,395.229,271h-1.614A1.616,1.616,0,0,1,392,272.615Z" transform="translate(-370.916 -227.091)" fill="#a9b2ba"/>
    <path id="Path_345" data-name="Path 345" d="M.006,126.9A5.878,5.878,0,0,0,5.964,132.3h.491V121H5.648a5.645,5.645,0,0,0-5.642,5.9Z" transform="translate(0 -85.159)" fill="#a9b2ba"/>
    <path id="Path_346" data-name="Path 346" d="M159.792,51.979h1.614V31h-1.614a4.893,4.893,0,0,1-4.895,4.841H150v11.3H154.9A4.893,4.893,0,0,1,159.792,51.979Z" transform="translate(-141.933 0)" fill="#a9b2ba"/>
    <path id="Path_347" data-name="Path 347" d="M392,188.308a2.406,2.406,0,0,0,0-4.544Z" transform="translate(-370.916 -144.546)" fill="#a9b2ba"/>
  </g>
</svg>
