<svg xmlns="http://www.w3.org/2000/svg" width="24.782" height="24.782" viewBox="0 0 24.782 24.782">
  <g id="search_1_" data-name="search (1)" transform="translate(0 0)">
    <path id="Path_336" data-name="Path 336" d="M8.384,341.866l-3.08-3.08-5.3,5.3,3.08,3.08Zm0,0" transform="translate(0 -322.388)" fill="#a9b2ba"/>
    <path id="Path_337" data-name="Path 337" d="M219.789,120c-2.067,0-4.081,2.348-4.945,3.626.677.991,2.7,3.635,4.945,3.635,2.067,0,4.081-2.348,4.945-3.626C224.056,122.644,222.038,120,219.789,120Zm0,5.808a2.178,2.178,0,1,1,2.178-2.178A2.181,2.181,0,0,1,219.789,125.808Zm0,0" transform="translate(-204.445 -114.192)" fill="#a9b2ba"/>
    <path id="Path_338" data-name="Path 338" d="M302.726,180a.726.726,0,1,0,.726.726A.726.726,0,0,0,302.726,180Zm0,0" transform="translate(-287.382 -171.288)" fill="#a9b2ba"/>
    <path id="Path_339" data-name="Path 339" d="M131.438,0a9.429,9.429,0,0,0-8.03,14.387l-.984.984,3.081,3.081.984-.984A9.436,9.436,0,1,0,131.438,0Zm6.431,9.811c-.115.192-2.853,4.71-6.431,4.71s-6.317-4.518-6.431-4.71l-.223-.372.223-.372c.115-.192,2.853-4.71,6.431-4.71s6.317,4.518,6.431,4.71l.223.372Zm0,0" transform="translate(-116.095)" fill="#a9b2ba"/>
  </g>
</svg>
