<svg xmlns="http://www.w3.org/2000/svg" width="24.883" height="24.883" viewBox="0 0 24.883 24.883">
  <g id="statistics" transform="translate(0 0)">
    <path id="Path_334" data-name="Path 334" d="M33.187,11.664a2.176,2.176,0,0,0,1.514-.615l2.158,1.079a2.142,2.142,0,0,0-.027.265,2.187,2.187,0,0,0,4.374,0,2.16,2.16,0,0,0-.219-.937l2.927-2.927a2.16,2.16,0,0,0,.937.219,2.189,2.189,0,0,0,2.187-2.187,2.154,2.154,0,0,0-.109-.648l2.544-1.907A2.186,2.186,0,1,0,48.5,2.187a2.154,2.154,0,0,0,.109.648L46.062,4.742A2.178,2.178,0,0,0,42.883,7.5l-2.927,2.927a2.149,2.149,0,0,0-2.451.4L35.347,9.742a2.142,2.142,0,0,0,.027-.265,2.187,2.187,0,1,0-2.187,2.187Zm0,0" transform="translate(-29.493)" fill="#a9b2ba"/>
    <path id="Path_335" data-name="Path 335" d="M24.154,166.135h-.778V150.729a.729.729,0,0,0-.729-.729H19.731a.729.729,0,0,0-.729.729v15.406H17.544V155.1a.729.729,0,0,0-.729-.729H13.9a.729.729,0,0,0-.729.729v11.032H11.713v-5.2a.729.729,0,0,0-.729-.729H8.068a.729.729,0,0,0-.729.729v5.2H5.881v-8.116a.729.729,0,0,0-.729-.729H2.236a.729.729,0,0,0-.729.729v8.116H.729a.729.729,0,0,0,0,1.458H24.154a.729.729,0,0,0,0-1.458Zm0,0" transform="translate(0 -142.71)" fill="#a9b2ba"/>
  </g>
</svg>
